# xmcd
#
# Track frame offsets: 
#        150
#        11984
#        36981
#        55193
#        75250
#        92930
#        104279
#        119756
#        139268
#        156470
#        173835
#        188147
#
# Disc length: 2845 seconds
#
# Revision: 1
# Processed by: cddbd v1.5.2PL0 Copyright (c) Steve Scherf et al.
# Submitted via: ExactAudioCopy v1.0b2
#
DISCID=a50b1b0c
DTITLE=Ben Harper - Welcome to the Cruel World
DYEAR=1994
DGENRE=Blues
TTITLE0=Three of Us
TTITLE1=Whipping Boy
TTITLE2=Breakin' Down
TTITLE3=Don't Take That Attitude to Your Grave
TTITLE4=Waiting on an Angel
TTITLE5=Mama's Got a Girlfriend Now
TTITLE6=Forever
TTITLE7=Like a King
TTITLE8=Pleasure and Pain
TTITLE9=Walk Away
TTITLE10=How Many Miles Must We March
TTITLE11=Welcome to the Cruel World
EXTD=YEAR: 1994
EXTT0=
EXTT1=
EXTT2=
EXTT3=
EXTT4=
EXTT5=
EXTT6=
EXTT7=
EXTT8=
EXTT9=
EXTT10=
EXTT11=
PLAYORDER=
